<mxfile host="app.diagrams.net" modified="2022-05-18T12:51:08.527Z" agent="5.0 (Windows NT 10.0; Win64; x64) AppleWebKit/537.36 (KHTML, like Gecko) Chrome/101.0.4951.67 Safari/537.36" etag="bUFgclFWmM5ACuEQR6T5" version="18.0.7" type="github">
  <diagram id="IgAtLRoqaORFCgqY8lEI" name="Page-1">
    <mxGraphModel dx="1280" dy="864" grid="1" gridSize="10" guides="1" tooltips="1" connect="1" arrows="1" fold="1" page="1" pageScale="1" pageWidth="827" pageHeight="1169" math="0" shadow="0">
      <root>
        <mxCell id="0" />
        <mxCell id="1" parent="0" />
        <mxCell id="XRNb0y5-1gbLOPC4F7S8-13" value="STM32F407最小系统" style="shape=cube;whiteSpace=wrap;html=1;boundedLbl=1;backgroundOutline=1;darkOpacity=0.05;darkOpacity2=0.1;" vertex="1" parent="1">
          <mxGeometry x="250" y="130" width="230" height="230" as="geometry" />
        </mxCell>
        <mxCell id="XRNb0y5-1gbLOPC4F7S8-14" value="加速度计&lt;br&gt;陀螺仪&lt;br&gt;ICM20602" style="shape=cube;whiteSpace=wrap;html=1;boundedLbl=1;backgroundOutline=1;darkOpacity=0.05;darkOpacity2=0.1;size=20;" vertex="1" parent="1">
          <mxGeometry x="580" y="120" width="110" height="70" as="geometry" />
        </mxCell>
        <mxCell id="XRNb0y5-1gbLOPC4F7S8-23" value="电子罗盘&lt;br&gt;AK89757" style="shape=cube;whiteSpace=wrap;html=1;boundedLbl=1;backgroundOutline=1;darkOpacity=0.05;darkOpacity2=0.1;size=20;" vertex="1" parent="1">
          <mxGeometry x="580" y="200" width="110" height="50" as="geometry" />
        </mxCell>
        <mxCell id="XRNb0y5-1gbLOPC4F7S8-24" value="" style="shape=flexArrow;endArrow=classic;startArrow=classic;html=1;rounded=0;entryX=0;entryY=0;entryDx=0;entryDy=15;entryPerimeter=0;exitX=0.997;exitY=0.127;exitDx=0;exitDy=0;exitPerimeter=0;endWidth=6;endSize=6.046666666666667;startWidth=6;startSize=6.046666666666667;" edge="1" parent="1">
          <mxGeometry width="100" height="100" relative="1" as="geometry">
            <mxPoint x="479.99999999999994" y="230.39999999999998" as="sourcePoint" />
            <mxPoint x="580.6899999999999" y="230" as="targetPoint" />
          </mxGeometry>
        </mxCell>
        <mxCell id="XRNb0y5-1gbLOPC4F7S8-25" value="SPI" style="edgeLabel;html=1;align=center;verticalAlign=middle;resizable=0;points=[];" vertex="1" connectable="0" parent="XRNb0y5-1gbLOPC4F7S8-24">
          <mxGeometry x="-0.1428" relative="1" as="geometry">
            <mxPoint x="7" as="offset" />
          </mxGeometry>
        </mxCell>
        <mxCell id="XRNb0y5-1gbLOPC4F7S8-26" value="气压计&lt;br&gt;SPL06-001" style="shape=cube;whiteSpace=wrap;html=1;boundedLbl=1;backgroundOutline=1;darkOpacity=0.05;darkOpacity2=0.1;size=20;" vertex="1" parent="1">
          <mxGeometry x="580" y="260" width="110" height="50" as="geometry" />
        </mxCell>
        <mxCell id="XRNb0y5-1gbLOPC4F7S8-27" value="" style="shape=flexArrow;endArrow=classic;startArrow=classic;html=1;rounded=0;entryX=0;entryY=0;entryDx=0;entryDy=15;entryPerimeter=0;exitX=0.997;exitY=0.127;exitDx=0;exitDy=0;exitPerimeter=0;endWidth=6;endSize=6.046666666666667;startWidth=6;startSize=6.046666666666667;" edge="1" parent="1">
          <mxGeometry width="100" height="100" relative="1" as="geometry">
            <mxPoint x="480" y="290.4" as="sourcePoint" />
            <mxPoint x="580.69" y="290" as="targetPoint" />
          </mxGeometry>
        </mxCell>
        <mxCell id="XRNb0y5-1gbLOPC4F7S8-28" value="SPI" style="edgeLabel;html=1;align=center;verticalAlign=middle;resizable=0;points=[];" vertex="1" connectable="0" parent="XRNb0y5-1gbLOPC4F7S8-27">
          <mxGeometry x="-0.1428" relative="1" as="geometry">
            <mxPoint x="7" as="offset" />
          </mxGeometry>
        </mxCell>
        <mxCell id="XRNb0y5-1gbLOPC4F7S8-29" value="超声波测距&lt;br&gt;US-100" style="shape=cube;whiteSpace=wrap;html=1;boundedLbl=1;backgroundOutline=1;darkOpacity=0.05;darkOpacity2=0.1;size=20;" vertex="1" parent="1">
          <mxGeometry x="580" y="320" width="110" height="50" as="geometry" />
        </mxCell>
        <mxCell id="XRNb0y5-1gbLOPC4F7S8-30" value="" style="shape=flexArrow;endArrow=classic;startArrow=classic;html=1;rounded=0;entryX=0;entryY=0;entryDx=0;entryDy=15;entryPerimeter=0;exitX=0.997;exitY=0.127;exitDx=0;exitDy=0;exitPerimeter=0;endWidth=6;endSize=6.046666666666667;startWidth=6;startSize=6.046666666666667;" edge="1" parent="1">
          <mxGeometry width="100" height="100" relative="1" as="geometry">
            <mxPoint x="480" y="170.39999999999998" as="sourcePoint" />
            <mxPoint x="580.6899999999999" y="170" as="targetPoint" />
          </mxGeometry>
        </mxCell>
        <mxCell id="XRNb0y5-1gbLOPC4F7S8-31" value="SPI" style="edgeLabel;html=1;align=center;verticalAlign=middle;resizable=0;points=[];" vertex="1" connectable="0" parent="XRNb0y5-1gbLOPC4F7S8-30">
          <mxGeometry x="-0.1428" relative="1" as="geometry">
            <mxPoint x="7" as="offset" />
          </mxGeometry>
        </mxCell>
        <mxCell id="XRNb0y5-1gbLOPC4F7S8-32" value="" style="shape=flexArrow;endArrow=classic;startArrow=classic;html=1;rounded=0;entryX=0;entryY=0;entryDx=0;entryDy=15;entryPerimeter=0;exitX=0.997;exitY=0.127;exitDx=0;exitDy=0;exitPerimeter=0;endWidth=15.2;endSize=9.376000000000001;startWidth=6;startSize=6.046666666666667;" edge="1" parent="1">
          <mxGeometry width="100" height="100" relative="1" as="geometry">
            <mxPoint x="480" y="340.4" as="sourcePoint" />
            <mxPoint x="580.69" y="340" as="targetPoint" />
          </mxGeometry>
        </mxCell>
        <mxCell id="XRNb0y5-1gbLOPC4F7S8-33" value="UART" style="edgeLabel;html=1;align=center;verticalAlign=middle;resizable=0;points=[];" vertex="1" connectable="0" parent="XRNb0y5-1gbLOPC4F7S8-32">
          <mxGeometry x="-0.1428" relative="1" as="geometry">
            <mxPoint x="7" as="offset" />
          </mxGeometry>
        </mxCell>
        <mxCell id="XRNb0y5-1gbLOPC4F7S8-41" value="" style="shape=flexArrow;endArrow=classic;startArrow=classic;html=1;rounded=0;entryX=0;entryY=0;entryDx=0;entryDy=15;entryPerimeter=0;exitX=0.997;exitY=0.127;exitDx=0;exitDy=0;exitPerimeter=0;endWidth=6;endSize=6.046666666666667;startWidth=6;startSize=6.046666666666667;" edge="1" parent="1">
          <mxGeometry width="100" height="100" relative="1" as="geometry">
            <mxPoint x="149.31" y="150.39999999999998" as="sourcePoint" />
            <mxPoint x="250.00000000000006" y="150" as="targetPoint" />
          </mxGeometry>
        </mxCell>
        <mxCell id="XRNb0y5-1gbLOPC4F7S8-42" value="SWD" style="edgeLabel;html=1;align=center;verticalAlign=middle;resizable=0;points=[];" vertex="1" connectable="0" parent="XRNb0y5-1gbLOPC4F7S8-41">
          <mxGeometry x="-0.1428" relative="1" as="geometry">
            <mxPoint x="7" as="offset" />
          </mxGeometry>
        </mxCell>
        <mxCell id="XRNb0y5-1gbLOPC4F7S8-43" value="&lt;font style=&quot;font-size: 12px;&quot;&gt;下载器&lt;/font&gt;" style="shape=cube;whiteSpace=wrap;html=1;boundedLbl=1;backgroundOutline=1;darkOpacity=0.05;darkOpacity2=0.1;fontSize=16;" vertex="1" parent="1">
          <mxGeometry x="50" y="130" width="100" height="40" as="geometry" />
        </mxCell>
        <mxCell id="XRNb0y5-1gbLOPC4F7S8-46" value="" style="shape=flexArrow;endArrow=classic;html=1;rounded=0;fontSize=12;endWidth=11.538461538461538;endSize=5.4923076923076914;exitX=-0.001;exitY=0.273;exitDx=0;exitDy=0;exitPerimeter=0;" edge="1" parent="1">
          <mxGeometry width="50" height="50" relative="1" as="geometry">
            <mxPoint x="249.76999999999998" y="199.99999999999997" as="sourcePoint" />
            <mxPoint x="150" y="200.21" as="targetPoint" />
          </mxGeometry>
        </mxCell>
        <mxCell id="XRNb0y5-1gbLOPC4F7S8-48" value="&lt;font style=&quot;font-size: 12px;&quot;&gt;蜂鸣器&lt;/font&gt;" style="shape=cube;whiteSpace=wrap;html=1;boundedLbl=1;backgroundOutline=1;darkOpacity=0.05;darkOpacity2=0.1;fontSize=16;" vertex="1" parent="1">
          <mxGeometry x="50" y="180" width="100" height="40" as="geometry" />
        </mxCell>
        <mxCell id="XRNb0y5-1gbLOPC4F7S8-49" value="" style="shape=flexArrow;endArrow=classic;startArrow=classic;html=1;rounded=0;entryX=0;entryY=0;entryDx=0;entryDy=15;entryPerimeter=0;exitX=0.997;exitY=0.127;exitDx=0;exitDy=0;exitPerimeter=0;endWidth=6;endSize=6.046666666666667;startWidth=6;startSize=6.046666666666667;" edge="1" parent="1">
          <mxGeometry width="100" height="100" relative="1" as="geometry">
            <mxPoint x="149.99999999999994" y="250.39999999999998" as="sourcePoint" />
            <mxPoint x="250.69" y="250" as="targetPoint" />
          </mxGeometry>
        </mxCell>
        <mxCell id="XRNb0y5-1gbLOPC4F7S8-50" value="IIC" style="edgeLabel;html=1;align=center;verticalAlign=middle;resizable=0;points=[];" vertex="1" connectable="0" parent="XRNb0y5-1gbLOPC4F7S8-49">
          <mxGeometry x="-0.1428" relative="1" as="geometry">
            <mxPoint x="7" as="offset" />
          </mxGeometry>
        </mxCell>
        <mxCell id="XRNb0y5-1gbLOPC4F7S8-51" value="&lt;font style=&quot;font-size: 12px;&quot;&gt;数据传输模块&lt;/font&gt;" style="shape=cube;whiteSpace=wrap;html=1;boundedLbl=1;backgroundOutline=1;darkOpacity=0.05;darkOpacity2=0.1;fontSize=16;" vertex="1" parent="1">
          <mxGeometry x="50" y="230" width="100" height="40" as="geometry" />
        </mxCell>
        <mxCell id="XRNb0y5-1gbLOPC4F7S8-52" value="" style="shape=flexArrow;endArrow=classic;html=1;rounded=0;fontSize=12;endWidth=11.538461538461538;endSize=5.4923076923076914;exitX=-0.001;exitY=0.273;exitDx=0;exitDy=0;exitPerimeter=0;" edge="1" parent="1">
          <mxGeometry width="50" height="50" relative="1" as="geometry">
            <mxPoint x="249.76999999999998" y="310" as="sourcePoint" />
            <mxPoint x="150" y="310.21000000000004" as="targetPoint" />
          </mxGeometry>
        </mxCell>
        <mxCell id="XRNb0y5-1gbLOPC4F7S8-53" value="&lt;font style=&quot;font-size: 12px;&quot;&gt;摄像头模块&lt;br&gt;openmv&lt;br&gt;&lt;/font&gt;" style="shape=cube;whiteSpace=wrap;html=1;boundedLbl=1;backgroundOutline=1;darkOpacity=0.05;darkOpacity2=0.1;fontSize=16;" vertex="1" parent="1">
          <mxGeometry x="50" y="270" width="100" height="60" as="geometry" />
        </mxCell>
        <mxCell id="XRNb0y5-1gbLOPC4F7S8-64" value="好盈20A电调" style="shape=cube;whiteSpace=wrap;html=1;boundedLbl=1;backgroundOutline=1;darkOpacity=0.05;darkOpacity2=0.1;fontSize=12;" vertex="1" parent="1">
          <mxGeometry x="260" y="420" width="100" height="50" as="geometry" />
        </mxCell>
        <mxCell id="XRNb0y5-1gbLOPC4F7S8-66" value="" style="shape=flexArrow;endArrow=classic;html=1;rounded=0;fontSize=12;endWidth=11.538461538461538;endSize=5.4923076923076914;entryX=0;entryY=0;entryDx=40;entryDy=0;entryPerimeter=0;" edge="1" parent="1" target="XRNb0y5-1gbLOPC4F7S8-64">
          <mxGeometry width="50" height="50" relative="1" as="geometry">
            <mxPoint x="300" y="360" as="sourcePoint" />
            <mxPoint x="160.23000000000002" y="310.21000000000004" as="targetPoint" />
          </mxGeometry>
        </mxCell>
        <mxCell id="XRNb0y5-1gbLOPC4F7S8-70" value="PWM" style="edgeLabel;html=1;align=center;verticalAlign=middle;resizable=0;points=[];fontSize=12;" vertex="1" connectable="0" parent="XRNb0y5-1gbLOPC4F7S8-66">
          <mxGeometry x="-0.2391" relative="1" as="geometry">
            <mxPoint as="offset" />
          </mxGeometry>
        </mxCell>
        <mxCell id="XRNb0y5-1gbLOPC4F7S8-68" value="电源电路&lt;br&gt;TPS62133" style="shape=cube;whiteSpace=wrap;html=1;boundedLbl=1;backgroundOutline=1;darkOpacity=0.05;darkOpacity2=0.1;fontSize=12;" vertex="1" parent="1">
          <mxGeometry x="390" y="420" width="100" height="60" as="geometry" />
        </mxCell>
        <mxCell id="XRNb0y5-1gbLOPC4F7S8-69" value="" style="shape=flexArrow;endArrow=classic;html=1;rounded=0;fontSize=12;endWidth=11.538461538461538;endSize=5.4923076923076914;entryX=0;entryY=0;entryDx=40;entryDy=0;entryPerimeter=0;" edge="1" parent="1" target="XRNb0y5-1gbLOPC4F7S8-68">
          <mxGeometry width="50" height="50" relative="1" as="geometry">
            <mxPoint x="430" y="360" as="sourcePoint" />
            <mxPoint x="310" y="430" as="targetPoint" />
          </mxGeometry>
        </mxCell>
        <mxCell id="XRNb0y5-1gbLOPC4F7S8-71" value="DC5V" style="edgeLabel;html=1;align=center;verticalAlign=middle;resizable=0;points=[];fontSize=12;" vertex="1" connectable="0" parent="XRNb0y5-1gbLOPC4F7S8-69">
          <mxGeometry x="-0.1915" y="3" relative="1" as="geometry">
            <mxPoint as="offset" />
          </mxGeometry>
        </mxCell>
        <mxCell id="XRNb0y5-1gbLOPC4F7S8-72" value="3S锂电池&lt;br&gt;11.2V" style="shape=cube;whiteSpace=wrap;html=1;boundedLbl=1;backgroundOutline=1;darkOpacity=0.05;darkOpacity2=0.1;fontSize=15;" vertex="1" parent="1">
          <mxGeometry x="590" y="420" width="100" height="60" as="geometry" />
        </mxCell>
        <mxCell id="XRNb0y5-1gbLOPC4F7S8-73" value="" style="endArrow=classic;html=1;rounded=0;fontSize=15;exitX=0;exitY=0;exitDx=0;exitDy=20;exitPerimeter=0;entryX=0;entryY=0;entryDx=100;entryDy=20;entryPerimeter=0;" edge="1" parent="1" source="XRNb0y5-1gbLOPC4F7S8-72" target="XRNb0y5-1gbLOPC4F7S8-68">
          <mxGeometry width="50" height="50" relative="1" as="geometry">
            <mxPoint x="510" y="330" as="sourcePoint" />
            <mxPoint x="560" y="280" as="targetPoint" />
          </mxGeometry>
        </mxCell>
        <mxCell id="XRNb0y5-1gbLOPC4F7S8-74" value="电源管理" style="text;html=1;align=center;verticalAlign=middle;resizable=0;points=[];autosize=1;strokeColor=none;fillColor=none;fontSize=15;" vertex="1" parent="1">
          <mxGeometry x="500" y="420" width="80" height="20" as="geometry" />
        </mxCell>
        <mxCell id="XRNb0y5-1gbLOPC4F7S8-75" value="无刷电机&lt;br&gt;朗宇980KV" style="shape=cube;whiteSpace=wrap;html=1;boundedLbl=1;backgroundOutline=1;darkOpacity=0.05;darkOpacity2=0.1;fontSize=12;" vertex="1" parent="1">
          <mxGeometry x="60" y="410" width="100" height="50" as="geometry" />
        </mxCell>
        <mxCell id="XRNb0y5-1gbLOPC4F7S8-76" value="" style="shape=flexArrow;endArrow=classic;html=1;rounded=0;fontSize=12;endWidth=11.538461538461538;endSize=5.4923076923076914;exitX=-0.001;exitY=0.273;exitDx=0;exitDy=0;exitPerimeter=0;" edge="1" parent="1">
          <mxGeometry width="50" height="50" relative="1" as="geometry">
            <mxPoint x="260.0000000000001" y="440" as="sourcePoint" />
            <mxPoint x="160.22999999999988" y="440.21000000000004" as="targetPoint" />
          </mxGeometry>
        </mxCell>
      </root>
    </mxGraphModel>
  </diagram>
</mxfile>
